<?xml version="1.0" encoding="UTF-8"?>
<!DOCTYPE svg PUBLIC "-//W3C//DTD SVG 1.1//EN" "http://www.w3.org/Graphics/SVG/1.1/DTD/svg11.dtd">
<svg xmlns="http://www.w3.org/2000/svg" version="1.1" width="512px" height="512px" style="shape-rendering:geometricPrecision; text-rendering:geometricPrecision; image-rendering:optimizeQuality; fill-rule:evenodd; clip-rule:evenodd" xmlns:xlink="http://www.w3.org/1999/xlink">
<g><path style="opacity:0.99" fill="#000000" d="M 230.5,-0.5 C 247.167,-0.5 263.833,-0.5 280.5,-0.5C 292.086,0.911142 303.752,2.74448 315.5,5C 329.114,8.40493 342.447,12.7383 355.5,18C 426.9,50.075 475.4,103.242 501,177.5C 506.239,194.956 509.739,212.622 511.5,230.5C 511.5,247.167 511.5,263.833 511.5,280.5C 498.836,377.417 448.836,447.25 361.5,490C 335.499,501.083 308.499,508.25 280.5,511.5C 263.833,511.5 247.167,511.5 230.5,511.5C 187.892,506.688 148.559,492.855 112.5,470C 106.758,465.25 100.758,460.917 94.5,457C 88.6155,450.978 82.2822,445.311 75.5,440C 47.0456,411.275 25.8789,377.775 12,339.5C 5.46334,320.261 1.29667,300.594 -0.5,280.5C -0.5,263.833 -0.5,247.167 -0.5,230.5C 9.15258,146.936 48.8193,82.4364 118.5,37C 141.064,23.4629 165.064,13.1295 190.5,6C 203.887,3.26829 217.22,1.10162 230.5,-0.5 Z"/></g>
<g><path style="opacity:1" fill="#cccac5" d="M 341.5,236.5 C 341.5,242.167 341.5,247.833 341.5,253.5C 335.167,253.5 328.833,253.5 322.5,253.5C 322.5,270.167 322.5,286.833 322.5,303.5C 316.5,303.5 310.5,303.5 304.5,303.5C 304.275,277.155 304.608,250.821 305.5,224.5C 310.589,210.917 320.256,202.417 334.5,199C 336.81,198.503 339.143,198.337 341.5,198.5C 341.5,204.833 341.5,211.167 341.5,217.5C 329.491,218.175 323.158,224.509 322.5,236.5C 328.833,236.5 335.167,236.5 341.5,236.5 Z"/></g>
<g><path style="opacity:1" fill="#7b7b78" d="M 90.5,198.5 C 91.4902,204.645 91.8235,210.978 91.5,217.5C 90.1667,217.5 88.8333,217.5 87.5,217.5C 88.209,216.596 89.209,216.263 90.5,216.5C 90.5,210.5 90.5,204.5 90.5,198.5 Z"/></g>
<g><path style="opacity:1" fill="#494847" d="M 276.5,214.5 C 277.209,213.596 278.209,213.263 279.5,213.5C 279.5,221.167 279.5,228.833 279.5,236.5C 279.152,228.943 278.152,221.61 276.5,214.5 Z"/></g>
<g><path style="opacity:1" fill="#c8c7c2" d="M 276.5,214.5 C 278.152,221.61 279.152,228.943 279.5,236.5C 285.5,236.5 291.5,236.5 297.5,236.5C 297.5,241.833 297.5,247.167 297.5,252.5C 291.167,252.5 284.833,252.5 278.5,252.5C 278.176,259.354 278.509,266.021 279.5,272.5C 280.995,275.653 282.662,278.819 284.5,282C 288.885,284.219 293.218,286.052 297.5,287.5C 297.5,293.167 297.5,298.833 297.5,304.5C 294.833,304.5 292.167,304.5 289.5,304.5C 282.081,302.538 275.581,298.872 270,293.5C 269.218,290.924 267.718,288.924 265.5,287.5C 263.606,283.135 261.939,278.801 260.5,274.5C 260.18,256.09 260.514,237.757 261.5,219.5C 266.749,218.417 271.749,216.75 276.5,214.5 Z"/></g>
<g><path style="opacity:1" fill="#5d5d5b" d="M 251.5,234.5 C 240.473,234.287 229.473,234.62 218.5,235.5C 219.609,234.71 220.942,234.21 222.5,234C 232.342,233.175 242.009,233.342 251.5,234.5 Z"/></g>
<g><path style="opacity:1" fill="#323231" d="M 438.5,235.5 C 441.304,234.362 444.304,234.195 447.5,235C 449.974,235.037 451.974,235.87 453.5,237.5C 448.586,236.293 443.586,235.626 438.5,235.5 Z"/></g>
<g><path style="opacity:1" fill="#c2c0ba" d="M 90.5,198.5 C 90.5,204.5 90.5,210.5 90.5,216.5C 89.209,216.263 88.209,216.596 87.5,217.5C 84.6887,217.826 82.022,218.659 79.5,220C 78.3589,222.308 76.6922,224.141 74.5,225.5C 72.7194,228.956 71.7194,232.622 71.5,236.5C 77.8333,236.5 84.1667,236.5 90.5,236.5C 90.5,241.833 90.5,247.167 90.5,252.5C 83.9779,252.177 77.6446,252.51 71.5,253.5C 71.5,270.167 71.5,286.833 71.5,303.5C 65.5,303.5 59.5,303.5 53.5,303.5C 53.1843,277.141 53.5177,250.808 54.5,224.5C 58.7654,215.339 65.0987,207.839 73.5,202C 78.9753,199.872 84.642,198.705 90.5,198.5 Z"/></g>
<g><path style="opacity:1" fill="#c3c3be" d="M 251.5,234.5 C 251.5,241.167 251.5,247.833 251.5,254.5C 242.494,254.334 233.494,254.5 224.5,255C 223.167,256.333 223.167,257.667 224.5,259C 234.189,258.382 242.356,261.548 249,268.5C 250.646,270.609 251.812,272.943 252.5,275.5C 252.704,278.518 253.037,281.518 253.5,284.5C 251.652,294.683 245.652,301.016 235.5,303.5C 224.833,303.5 214.167,303.5 203.5,303.5C 203.5,297.833 203.5,292.167 203.5,286.5C 213.167,285.833 222.833,285.167 232.5,284.5C 233.887,282.511 233.553,280.678 231.5,279C 214.817,280.35 205.484,272.85 203.5,256.5C 204.375,246.327 209.375,239.327 218.5,235.5C 229.473,234.62 240.473,234.287 251.5,234.5 Z"/></g>
<g><path style="opacity:1" fill="#888785" d="M 305.5,224.5 C 304.608,250.821 304.275,277.155 304.5,303.5C 303.337,279.003 303.17,254.337 304,229.5C 304.198,227.618 304.698,225.952 305.5,224.5 Z"/></g>
<g><path style="opacity:1" fill="#c1c2bc" d="M 157.5,235.5 C 176.676,233.497 190.176,241.163 198,258.5C 202.731,278.195 196.231,292.695 178.5,302C 155.716,308.856 139.883,301.356 131,279.5C 127.31,257.203 136.144,242.537 157.5,235.5 Z"/></g>
<g><path style="opacity:1" fill="#d1d2cc" d="M 438.5,235.5 C 443.586,235.626 448.586,236.293 453.5,237.5C 465.318,241.484 472.818,249.484 476,261.5C 476.497,263.81 476.663,266.143 476.5,268.5C 476.5,271.833 476.5,275.167 476.5,278.5C 460.819,278.167 445.152,278.501 429.5,279.5C 429.624,280.107 429.957,280.44 430.5,280.5C 431.262,282.262 432.596,283.262 434.5,283.5C 434.577,284.75 435.244,285.583 436.5,286C 440.689,286.812 444.689,286.645 448.5,285.5C 450.66,284.266 452.827,282.933 455,281.5C 459.222,284.969 463.222,288.636 467,292.5C 467.667,293.167 467.667,293.833 467,294.5C 450.648,307.829 434.314,307.829 418,294.5C 415.667,290.833 413.333,287.167 411,283.5C 410.178,280.883 409.678,278.216 409.5,275.5C 409.5,271.833 409.5,268.167 409.5,264.5C 410.103,257.638 412.603,251.638 417,246.5C 420.048,244.904 422.548,242.737 424.5,240C 429.096,238.186 433.762,236.686 438.5,235.5 Z"/></g>
<g><path style="opacity:1" fill="#646462" d="M 131.5,252.5 C 131.5,246.833 131.5,241.167 131.5,235.5C 128.167,235.5 124.833,235.5 121.5,235.5C 123.984,234.631 126.651,233.964 129.5,233.5C 130.442,233.608 131.275,233.941 132,234.5C 132.819,240.681 132.653,246.681 131.5,252.5 Z"/></g>
<g><path style="opacity:1" fill="#353533" d="M 341.5,236.5 C 341.862,241.421 342.862,246.087 344.5,250.5C 343.833,251.833 342.833,252.833 341.5,253.5C 341.5,247.833 341.5,242.167 341.5,236.5 Z"/></g>
<g><path style="opacity:1" fill="#605f5d" d="M 261.5,219.5 C 260.514,237.757 260.18,256.09 260.5,274.5C 259.834,265.506 259.5,256.34 259.5,247C 259.502,237.475 260.168,228.308 261.5,219.5 Z"/></g>
<g><path style="opacity:1" fill="#8e8d8b" d="M 90.5,236.5 C 91.4889,241.975 91.8222,247.642 91.5,253.5C 84.8333,253.5 78.1667,253.5 71.5,253.5C 77.6446,252.51 83.9779,252.177 90.5,252.5C 90.5,247.167 90.5,241.833 90.5,236.5 Z"/></g>
<g><path style="opacity:1" fill="#585856" d="M 297.5,252.5 C 292.025,253.489 286.358,253.822 280.5,253.5C 279.51,259.645 279.177,265.978 279.5,272.5C 278.509,266.021 278.176,259.354 278.5,252.5C 284.833,252.5 291.167,252.5 297.5,252.5 Z"/></g>
<g><path style="opacity:1" fill="#31302f" d="M 297.5,236.5 C 298.49,242.31 298.823,248.31 298.5,254.5C 292.31,254.823 286.31,254.49 280.5,253.5C 286.358,253.822 292.025,253.489 297.5,252.5C 297.5,247.167 297.5,241.833 297.5,236.5 Z"/></g>
<g><path style="opacity:1" fill="#050505" d="M 160.5,254.5 C 175.465,253.191 181.965,259.858 180,274.5C 177.241,281.478 172.075,285.478 164.5,286.5C 156.952,285.486 151.785,281.486 149,274.5C 146.956,264.235 150.79,257.568 160.5,254.5 Z"/></g>
<g><path style="opacity:1" fill="#353434" d="M 341.5,253.5 C 341.5,253.833 341.5,254.167 341.5,254.5C 335.5,254.5 329.5,254.5 323.5,254.5C 323.83,271.009 323.496,287.342 322.5,303.5C 322.5,286.833 322.5,270.167 322.5,253.5C 328.833,253.5 335.167,253.5 341.5,253.5 Z"/></g>
<g><path style="opacity:1" fill="#0f0f0f" d="M 455.5,259.5 C 447.167,260.833 438.833,260.833 430.5,259.5C 435.202,253.688 441.202,252.021 448.5,254.5C 451.289,255.633 453.622,257.3 455.5,259.5 Z"/></g>
<g><path style="opacity:1" fill="#c2c1bb" d="M 121.5,235.5 C 124.833,235.5 128.167,235.5 131.5,235.5C 131.5,241.167 131.5,246.833 131.5,252.5C 122.853,253.732 116.353,258.065 112,265.5C 110.58,278.106 110.08,290.772 110.5,303.5C 104.833,303.5 99.1667,303.5 93.5,303.5C 92.9834,288.738 93.6501,274.071 95.5,259.5C 100.038,246.959 108.705,238.959 121.5,235.5 Z"/></g>
<g><path style="opacity:1" fill="#3a3a39" d="M 430.5,259.5 C 438.833,260.833 447.167,260.833 455.5,259.5C 456.043,259.56 456.376,259.893 456.5,260.5C 447.5,261.833 438.5,261.833 429.5,260.5C 429.624,259.893 429.957,259.56 430.5,259.5 Z"/></g>
<g><path style="opacity:1" fill="#cfcdc8" d="M 406.5,259.5 C 406.76,266.557 406.427,273.557 405.5,280.5C 404.969,283.237 404.136,285.904 403,288.5C 390.788,304.021 375.288,308.188 356.5,301C 339.257,289.551 334.257,274.051 341.5,254.5C 341.5,254.167 341.5,253.833 341.5,253.5C 342.833,252.833 343.833,251.833 344.5,250.5C 352.883,238.195 364.55,233.361 379.5,236C 393.009,238.741 402.009,246.574 406.5,259.5 Z"/></g>
<g><path style="opacity:1" fill="#030303" d="M 377.5,254.5 C 382.469,255.656 385.802,258.656 387.5,263.5C 388.904,268.604 388.571,273.604 386.5,278.5C 385.128,281.534 382.794,283.534 379.5,284.5C 375.167,285.833 370.833,285.833 366.5,284.5C 360.116,281.932 357.116,277.099 357.5,270C 357.116,262.901 360.116,258.068 366.5,255.5C 370.099,254.656 373.766,254.323 377.5,254.5 Z"/></g>
<g><path style="opacity:1" fill="#70706d" d="M 377.5,254.5 C 373.766,254.323 370.099,254.656 366.5,255.5C 366.611,254.883 366.944,254.383 367.5,254C 371.027,253.192 374.36,253.359 377.5,254.5 Z"/></g>
<g><path style="opacity:1" fill="#82817d" d="M 406.5,259.5 C 406.972,261.531 407.972,263.198 409.5,264.5C 409.5,268.167 409.5,271.833 409.5,275.5C 408.025,277.007 406.691,278.673 405.5,280.5C 406.427,273.557 406.76,266.557 406.5,259.5 Z"/></g>
<g><path style="opacity:1" fill="#a7a6a3" d="M 95.5,259.5 C 93.6501,274.071 92.9834,288.738 93.5,303.5C 92.3398,290.673 92.1731,277.673 93,264.5C 93.0995,262.347 93.9328,260.681 95.5,259.5 Z"/></g>
<g><path style="opacity:1" fill="#7c7b78" d="M 387.5,263.5 C 388.117,263.611 388.617,263.944 389,264.5C 389.738,268.71 389.572,272.876 388.5,277C 388.164,278.03 387.497,278.53 386.5,278.5C 388.571,273.604 388.904,268.604 387.5,263.5 Z"/></g>
<g><path style="opacity:1" fill="#60615f" d="M 476.5,268.5 C 477.482,271.962 477.815,275.629 477.5,279.5C 461.658,279.17 445.991,279.504 430.5,280.5C 429.957,280.44 429.624,280.107 429.5,279.5C 445.152,278.501 460.819,278.167 476.5,278.5C 476.5,275.167 476.5,271.833 476.5,268.5 Z"/></g>
<g><path style="opacity:1" fill="#4d4d4b" d="M 252.5,275.5 C 254.482,278.373 254.815,281.373 253.5,284.5C 253.037,281.518 252.704,278.518 252.5,275.5 Z"/></g>
<g><path style="opacity:1" fill="#4b4b49" d="M 232.5,284.5 C 222.833,285.167 213.167,285.833 203.5,286.5C 202.51,292.31 202.177,298.31 202.5,304.5C 201.174,298.099 201.174,291.599 202.5,285C 212.494,284.5 222.494,284.334 232.5,284.5 Z"/></g>
<g><path style="opacity:1" fill="#696966" d="M 366.5,284.5 C 370.833,285.833 375.167,285.833 379.5,284.5C 379.389,285.117 379.056,285.617 378.5,286C 374.833,286.667 371.167,286.667 367.5,286C 366.944,285.617 366.611,285.117 366.5,284.5 Z"/></g>
<g><path style="opacity:1" fill="#656562" d="M 434.5,283.5 C 438.933,285.301 443.6,285.967 448.5,285.5C 444.689,286.645 440.689,286.812 436.5,286C 435.244,285.583 434.577,284.75 434.5,283.5 Z"/></g>
<g><path style="opacity:1" fill="#545352" d="M 297.5,287.5 C 298.49,293.31 298.823,299.31 298.5,305.5C 295.287,305.81 292.287,305.477 289.5,304.5C 292.167,304.5 294.833,304.5 297.5,304.5C 297.5,298.833 297.5,293.167 297.5,287.5 Z"/></g>
<g><path style="opacity:1" fill="#9b9b98" d="M 203.5,286.5 C 203.5,292.167 203.5,297.833 203.5,303.5C 214.167,303.5 224.833,303.5 235.5,303.5C 224.679,304.495 213.679,304.828 202.5,304.5C 202.177,298.31 202.51,292.31 203.5,286.5 Z"/></g>
</svg>
